<svg width="24" height="29" viewBox="0 0 24 29" fill="none" xmlns="http://www.w3.org/2000/svg">
<path d="M12 5.4C10.2319 5.4 8.5362 6.1375 7.28595 7.45025C6.03571 8.76301 5.33333 10.5435 5.33333 12.4V13.8H6.66667C7.02029 13.8 7.35943 13.9475 7.60948 14.2101C7.85952 14.4726 8 14.8287 8 15.2V19.4C8 19.7713 7.85952 20.1274 7.60948 20.3899C7.35943 20.6525 7.02029 20.8 6.66667 20.8H5.33333C4.97971 20.8 4.64057 20.6525 4.39052 20.3899C4.14048 20.1274 4 19.7713 4 19.4V12.4C4 11.2969 4.20693 10.2046 4.60896 9.18546C5.011 8.16632 5.60028 7.24032 6.34315 6.4603C7.08601 5.68029 7.96793 5.06155 8.93853 4.63941C9.90914 4.21727 10.9494 4 12 4C13.0506 4 14.0909 4.21727 15.0615 4.63941C16.0321 5.06155 16.914 5.68029 17.6569 6.4603C18.3997 7.24032 18.989 8.16632 19.391 9.18546C19.7931 10.2046 20 11.2969 20 12.4V20.8C20 21.7283 19.6488 22.6185 19.0237 23.2749C18.3986 23.9313 17.5507 24.3 16.6667 24.3H13.8213C13.7043 24.5128 13.536 24.6896 13.3333 24.8124C13.1306 24.9353 12.9007 25 12.6667 25H11.3333C10.9797 25 10.6406 24.8525 10.3905 24.5899C10.1405 24.3274 10 23.9713 10 23.6C10 23.2287 10.1405 22.8726 10.3905 22.6101C10.6406 22.3475 10.9797 22.2 11.3333 22.2H12.6667C12.9007 22.2 13.1306 22.2647 13.3333 22.3876C13.536 22.5104 13.7043 22.6872 13.8213 22.9H16.6667C17.1971 22.9 17.7058 22.6788 18.0809 22.2849C18.456 21.8911 18.6667 21.357 18.6667 20.8H17.3333C16.9797 20.8 16.6406 20.6525 16.3905 20.3899C16.1405 20.1274 16 19.7713 16 19.4V15.2C16 14.8287 16.1405 14.4726 16.3905 14.2101C16.6406 13.9475 16.9797 13.8 17.3333 13.8H18.6667V12.4C18.6667 11.4807 18.4942 10.5705 18.1592 9.72122C17.8242 8.87194 17.3331 8.10026 16.714 7.45025C16.095 6.80024 15.3601 6.28463 14.5512 5.93284C13.7424 5.58106 12.8755 5.4 12 5.4Z" fill="#3C3C3C"/>
</svg>
