<svg width="3" height="4" viewBox="0 0 3 4" fill="none" xmlns="http://www.w3.org/2000/svg">
<path d="M1.51204 2.71365H2.41118C2.38818 3.20918 2.04784 3.54028 1.54653 3.54028C0.916451 3.54028 0.493329 3.09363 0.493329 2.43143C0.493329 1.76924 0.91875 1.32259 1.52584 1.32259C2.02485 1.32259 2.25021 1.60035 2.37898 1.80924L2.40888 1.8559L2.75841 1.65146L2.73312 1.60702C2.50546 1.18704 2.07314 0.944824 1.54653 0.944824C0.700291 0.944824 0.0863037 1.56925 0.0863037 2.43143C0.0863037 3.29362 0.686493 3.91805 1.54653 3.91805C1.88687 3.91805 2.20881 3.78249 2.44797 3.54028L2.50316 3.87138H2.8205V2.3381H1.51204V2.71587V2.71365Z" fill="#3C3C3C"/>
</svg>
