<svg width="24" height="25" viewBox="0 0 24 25" fill="none" xmlns="http://www.w3.org/2000/svg">
<path d="M24 12.5C24 19.1274 18.6274 24.5 12 24.5C5.37258 24.5 0 19.1274 0 12.5C0 5.87258 5.37258 0.5 12 0.5C18.6274 0.5 24 5.87258 24 12.5ZM10.1859 8.1397C9.95732 7.97641 9.65662 7.95457 9.40681 8.08313C9.15701 8.21168 9 8.46906 9 8.75V16.25C9 16.5309 9.15701 16.7883 9.40681 16.9169C9.65662 17.0454 9.95732 17.0236 10.1859 16.8603L15.4359 13.1103C15.633 12.9695 15.75 12.7422 15.75 12.5C15.75 12.2578 15.633 12.0305 15.4359 11.8897L10.1859 8.1397Z" fill="#286937"/>
</svg>
