<svg width="10" height="15" viewBox="0 0 10 15" fill="none" xmlns="http://www.w3.org/2000/svg">
<path fill-rule="evenodd" clip-rule="evenodd" d="M5.88705 8.44775C5.01551 8.38109 4.21985 8.42331 3.51618 8.54997V7.57668C3.70705 7.60334 3.92551 7.62112 4.16466 7.62112C5.32135 7.62112 6.163 7.32113 6.48724 7.15225C6.90806 6.93003 7.37947 6.50116 7.68991 5.99007C8.00036 5.4812 8.15673 4.96122 8.15673 4.43457C8.15673 4.00792 8.07624 3.63238 7.91757 3.30128C7.7773 3.01018 7.54044 2.69242 7.2047 2.34354H8.73392V2.20132V0.63916H4.86374C3.4518 0.63916 2.3388 0.952482 1.52475 1.57912C0.708401 2.20577 0.301376 3.05907 0.301376 4.13458C0.301376 5.33898 0.816481 6.27006 1.84439 6.93003V9.08329C0.76819 9.62549 0.124309 10.4455 0.048423 11.3743C-0.140142 13.692 2.03986 14.6209 3.88412 14.7609C5.92844 14.9164 9.43529 14.4031 9.65605 11.6987C9.84462 9.21884 7.34958 8.55664 5.88475 8.44331L5.88705 8.44775ZM4.19456 2.37243C4.78555 2.37243 5.27996 2.54798 5.67319 2.89907C6.06871 3.25239 6.26418 3.69016 6.26418 4.21903C6.26418 4.74789 6.06871 5.17455 5.67779 5.5212C5.28686 5.87007 4.79935 6.0434 4.21526 6.0434C3.63116 6.0434 3.13445 5.8723 2.74813 5.53231C2.3618 5.19232 2.16863 4.76123 2.16863 4.24125C2.16863 3.72127 2.3664 3.28795 2.75962 2.9213C3.15745 2.55686 3.63346 2.37243 4.19456 2.37243ZM5.37654 10.0566C3.4449 9.90992 2.18013 10.5699 2.11114 11.4321C2.02146 12.5476 3.25403 13.0076 4.29114 13.0876C5.44323 13.1742 7.41627 12.9498 7.52205 11.6476C7.61173 10.4543 6.20209 10.1188 5.37654 10.0566Z" fill="white"/>
</svg>
