<svg width="28" height="25" viewBox="0 0 28 25" fill="none" xmlns="http://www.w3.org/2000/svg">
<path d="M21.5157 16.0353L27.4591 10.4422C28.016 9.91884 27.7274 8.9622 26.9832 8.85887L21.5157 16.0353ZM21.5157 16.0353L22.9164 23.9184L21.5157 16.0353ZM1.3824 10.0781C1.11497 9.82571 1.28201 9.39633 1.58599 9.35412L1.58671 9.35402L9.85207 8.19406L10.1095 8.15793L10.2278 7.92645L13.9132 0.715162C14.06 0.428279 14.4405 0.428279 14.5872 0.715162L18.2726 7.92645L18.3909 8.15793L18.6484 8.19406L26.9137 9.35402L26.9145 9.35412C27.2184 9.39632 27.3853 9.82536 27.1167 10.0778L27.1164 10.078L21.1731 15.6712L20.9761 15.8565L21.0234 16.1228L22.4241 24.0058L22.4241 24.0061C22.49 24.3757 22.1336 24.5855 21.8836 24.4591C21.8836 24.459 21.8835 24.459 21.8834 24.459L14.4739 20.6992L14.2476 20.5844L14.0213 20.6993L6.617 24.459C6.36704 24.5856 6.01042 24.3758 6.07633 24.0061L6.07638 24.0058L7.477 16.1228L7.52432 15.8565L7.32732 15.6711L1.38262 10.0783C1.38255 10.0782 1.38248 10.0782 1.3824 10.0781Z" stroke="#3C3C3C"/>
</svg>
