<svg width="7" height="7" viewBox="0 0 7 7" fill="none" xmlns="http://www.w3.org/2000/svg">
<path d="M6.88839 4.70603C6.51126 4.0505 6.08584 3.40386 5.66961 2.83499C5.93407 2.35946 6.17552 1.9017 6.33189 1.39727C6.33189 1.39283 6.33649 1.38838 6.33649 1.38394C6.33879 1.37727 6.34109 1.3706 6.34109 1.36394C6.34109 1.32172 6.3043 1.28839 6.26061 1.28839C6.25831 1.28839 6.25371 1.28839 6.25141 1.28839C6.25141 1.28839 6.24911 1.28839 6.24681 1.28839C5.67191 1.31727 5.08322 1.38172 4.48993 1.47949C3.97023 0.975064 3.5724 0.619522 3.0458 0.223981C3.0458 0.223981 3.0458 0.223981 3.0458 0.221759C3.0458 0.221759 3.0435 0.221759 3.0412 0.217315C3.0228 0.20176 2.99751 0.192871 2.96991 0.192871C2.93082 0.192871 2.89863 0.21287 2.88023 0.241758C2.87793 0.241758 2.87333 0.246202 2.87103 0.252869C2.86413 0.266202 2.85953 0.281757 2.85953 0.297312C2.85953 0.303978 2.85493 0.335088 2.85723 0.341754C2.85263 0.630632 2.84803 1.16395 2.82044 1.95058C2.01559 2.27057 1.38091 2.61945 0.615146 3.09498C0.582952 3.10609 0.562256 3.13498 0.562256 3.16831C0.562256 3.20165 0.585252 3.23053 0.617446 3.24165C0.617446 3.24165 0.617446 3.24165 0.622045 3.24165C1.4177 3.44386 2.02019 3.59274 2.88943 3.78829C2.89173 4.59271 2.95382 5.30601 3.07799 6.36153C3.08029 6.37708 3.08489 6.39042 3.08719 6.39708C3.10789 6.47486 3.17687 6.53485 3.26426 6.53485C3.31945 6.53485 3.36774 6.51041 3.40223 6.47263C3.40683 6.46819 3.41373 6.46597 3.41833 6.45708C4.02082 5.606 4.34966 5.04158 4.80267 4.19717C5.46495 4.33938 6.13643 4.56604 6.78031 4.82825C6.79411 4.83714 6.80791 4.84159 6.8263 4.84159C6.87689 4.84159 6.91599 4.80381 6.91599 4.75714C6.91599 4.73492 6.90679 4.71715 6.89299 4.70159" fill="white"/>
</svg>
