<svg width="15" height="11" viewBox="0 0 15 11" fill="none" xmlns="http://www.w3.org/2000/svg">
<path d="M10.9805 0.437012C9.86518 0.437012 8.78438 0.996991 7.76567 2.10362C7.0804 1.01255 6.10997 0.459233 4.8866 0.459233C3.97367 0.459233 3.03314 0.901439 2.08802 1.77696V0.643671H0V10.2033H2.08572V3.33024C2.49734 2.90136 2.86987 2.59693 3.19181 2.42583C3.51375 2.25472 3.87249 2.17028 4.25882 2.17028C4.94639 2.17028 5.4339 2.36805 5.70525 2.7547C5.9835 3.15246 6.12607 3.87466 6.12607 4.89684V10.2033H8.22328V3.33024C8.89016 2.58804 9.61453 2.2125 10.3757 2.2125C10.9667 2.2125 11.4266 2.41249 11.7416 2.80581C12.0613 3.2058 12.2222 3.79689 12.2222 4.5613V10.2055H14.308V4.5813C14.308 3.19691 13.9929 2.15028 13.372 1.46808C12.7489 0.785887 11.944 0.439234 10.9782 0.439234" fill="white"/>
</svg>
