<svg width="6" height="6" viewBox="0 0 6 6" fill="none" xmlns="http://www.w3.org/2000/svg">
<path d="M2.65154 3.41154C2.21692 2.71379 2.50207 0.547208 1.19821 0.547208C0.995845 0.547208 0.765887 0.596095 0.48074 0.70498C1.28559 2.19603 1.2235 3.92708 2.41008 4.29596C2.29281 4.66928 2.13184 5.02037 1.88578 5.02037C1.69722 5.02037 1.49485 4.96038 1.27869 4.96038C0.765887 4.96038 0.616415 5.17814 0.455444 5.66257C0.887765 5.89145 1.27869 6.00034 1.61673 6.00034C2.41238 6.00034 3.01257 5.30258 3.4127 4.33151C3.66335 3.72487 5.07529 0.318328 5.07529 0.318328C4.91432 0.269441 4.76485 0.233887 4.64297 0.233887C3.44259 0.233887 3.19654 1.41606 2.65154 3.41154Z" fill="#3C3C3C"/>
</svg>
