<svg width="10" height="11" viewBox="0 0 10 11" fill="none" xmlns="http://www.w3.org/2000/svg">
<path fill-rule="evenodd" clip-rule="evenodd" d="M1.60116 1.81479C2.4635 0.897044 3.59719 0.432617 4.97464 0.432617H4.97234C6.29919 0.432617 7.37309 0.885933 8.16415 1.78146C8.9529 2.67253 9.35303 3.87915 9.35303 5.37021V5.68575H2.41981C2.4842 6.53016 2.79234 7.21236 3.33964 7.71679C3.90304 8.23677 4.6458 8.5012 5.54033 8.5012C6.8051 8.5012 7.98708 8.11455 9.05408 7.35902L9.18286 7.26791V9.30117L9.14607 9.32339C8.54128 9.71227 7.93189 9.99226 7.3386 10.1589C6.74531 10.3256 6.03934 10.41 5.24139 10.41C4.14219 10.41 3.24076 10.1878 2.55778 9.74782C1.87711 9.30784 1.32521 8.71231 0.918186 7.97011C0.511161 7.23014 0.304199 6.36128 0.304199 5.39021C0.304199 3.93249 0.738819 2.73031 1.60116 1.81479ZM3.30745 2.80808C2.89352 3.18363 2.61297 3.72138 2.475 4.4058H7.25582C7.19603 3.71916 6.97297 3.1814 6.58894 2.80586C6.19111 2.41921 5.65301 2.22144 4.97464 2.22144C4.29626 2.22144 3.73747 2.41699 3.30745 2.80808Z" fill="white"/>
</svg>
